<svg width="151" height="75" viewBox="0 0 151 75" fill="none" xmlns="http://www.w3.org/2000/svg">
<path d="M33.9024 46.4284L34.0443 46.5687V50.6193C33.9519 50.5874 33.8363 50.7118 33.8033 50.7118H21.9451L21.7998 50.5715V24.3639H26.7168V46.1956C26.7168 46.1956 26.9413 46.4284 26.9578 46.4284H33.9024Z" fill="#F8FAFC"/>
<path d="M46.5861 24.4086L41.8177 24.3576L34.817 50.6161C34.9161 50.597 35.0053 50.7022 35.0581 50.7118H39.7835C39.8199 50.7118 40.0015 50.6161 40.0213 50.5459L41.012 45.8479L41.1804 45.6374L47.263 45.631L48.4155 50.5715C48.4452 50.6002 48.6367 50.7118 48.6565 50.7118H53.2829C53.3159 50.7118 53.4348 50.6034 53.5207 50.6129L46.5861 24.4086ZM46.2426 41.3094H42.0984L44.1722 31.4413C44.3736 31.4955 44.3736 31.7411 44.4165 31.9037C45.0208 34.2512 45.4765 36.8474 45.9752 39.2394C46.0775 39.7242 46.3516 40.6938 46.3483 41.118C46.3483 41.2264 46.3417 41.2392 46.2426 41.3094Z" fill="#F8FAFC"/>
<path d="M55.5978 24.3639H60.3728V50.6193H55.4525V24.5043L55.5978 24.3639Z" fill="#F8FAFC"/>
<path d="M79.1788 31.4827C79.0731 29.3809 78.5646 27.1547 76.8607 25.7131C73.9547 23.254 68.2122 23.4741 65.5209 26.1691C64.0878 27.6044 63.6585 29.4479 63.5561 31.3934C63.3547 35.1219 63.3712 39.8582 63.5495 43.593C63.7873 48.5781 66.4852 51.12 71.7059 50.9956C76.4017 50.884 78.9509 47.9753 79.1788 43.593C79.3703 39.9028 79.3637 35.1761 79.1788 31.4827ZM74.1496 43.6695C73.7467 47.9083 68.8363 47.685 68.5655 43.6855C68.8495 39.7019 68.1924 35.2431 68.5788 31.3105C68.734 29.7413 69.4439 28.3507 71.2502 28.2965C73.3802 28.2359 74.0373 29.8816 74.1661 31.6677C74.4402 35.5556 73.9613 39.7529 74.1496 43.6695Z" fill="#F8FAFC"/>
<path d="M92.7706 24.3639H97.6908V50.6193L92.7012 50.5938L87.4672 37.4916C87.2691 37.4055 87.1799 37.7564 87.1799 37.817V50.6193C87.0842 50.5874 86.9686 50.7118 86.9389 50.7118H82.405L82.2597 50.5715V24.3639H87.1799L92.579 38.3305C92.6781 38.3687 92.7706 38.1136 92.7706 38.0976V24.3639Z" fill="#F8FAFC"/>
<path d="M110.361 37.0642C109.84 37.5426 109.169 38.1263 108.364 37.9541C108.307 37.9413 107.568 37.3098 107.475 37.2141C105.606 35.377 105.395 31.4764 107.376 29.668C108.572 28.5772 109.985 30.1049 110.533 31.0968C111.669 33.1604 112.3 35.2941 110.361 37.0642Z" fill="#F8FAFC"/>
<path d="M111.649 30.9501C111.359 29.3267 110.88 27.9393 112.283 26.6316C113.442 25.5568 115.031 25.5377 115.893 26.9474C117.118 28.9599 118.155 32.8255 115.599 34.2512C113.812 35.2495 113.01 34.6754 112.201 33.0233C111.804 32.2163 111.798 31.7889 111.649 30.9501Z" fill="#F8FAFC"/>
<path d="M119.02 33.3326C118.122 31.9643 118.277 30.5099 118.531 28.9854C118.726 27.8149 119.191 25.8757 120.615 25.595C121.615 25.3973 122.17 25.8279 122.797 26.4721C124.191 27.8914 124.293 29.7253 123.673 31.5305C123.514 31.9962 122.632 34.0566 122.378 34.35C121.447 35.428 119.634 34.2671 119.02 33.3326Z" fill="#F8FAFC"/>
<path d="M126.4 39.1437C127.064 40.815 126.159 41.4593 125.476 42.7637C124.904 43.8577 124.006 46.6325 122.758 47.1237C122.187 47.3469 121.652 46.9674 121.166 46.9004C120.727 46.8398 119.545 46.7314 119.168 46.8239C117.95 47.1237 118.904 48.594 117.894 48.9417C116.695 48.106 115.229 48.5685 113.961 48.3612C113.433 48.2751 111.864 47.1205 111.573 46.6644C110.824 45.4875 110.784 44.0012 110.292 42.7797C110.206 42.5596 109.998 42.3714 109.886 42.1482C108.899 40.1899 110.051 38.4038 111.514 37.0579C115.011 33.8461 120.212 34.8572 123.91 37.0802C124.617 37.5044 126.116 38.4261 126.4 39.1437Z" fill="#F8FAFC"/>
<path d="M127.635 37.5873C126.542 38.2379 125.961 37.7978 125.027 37.1184C123.59 36.0755 122.926 34.9369 123.808 33.2401C124.488 31.9292 125.621 29.9645 127.272 29.7923C128.137 29.6998 128.712 30.0092 129.167 30.7045C130.449 32.65 129.706 36.3562 127.635 37.5873Z" fill="#F8FAFC"/>
</svg>
